<svg width="360" height="161" viewBox="0 0 360 161" fill="none" xmlns="http://www.w3.org/2000/svg">
<rect opacity="0.24" width="631.694" height="352.523" rx="45.4479" transform="matrix(0.707107 0.707107 0.707107 -0.707107 -317.684 249.83)" fill="#6C5CE7"/>
<g style="mix-blend-mode:multiply" opacity="0.24">
<path d="M-29.7789 165.36C-47.5274 183.108 -47.5273 211.884 -29.7788 229.633L352.623 612.035C370.371 629.783 399.148 629.783 416.896 612.035L499.525 529.405C517.274 511.657 517.274 482.881 499.525 465.132L117.124 82.7305C99.375 64.982 70.599 64.9819 52.8504 82.7304L-29.7789 165.36Z" fill="#FDCB6E"/>
</g>
<g clip-path="url(#clip0)">
<path d="M145.158 152.594C145.158 153.924 146.236 155.002 147.565 155.002C148.895 155.002 149.973 153.924 149.973 152.594C149.973 151.264 148.895 150.186 147.565 150.186C146.236 150.186 145.158 151.264 145.158 152.594Z" fill="#A29BFE"/>
<path d="M153.184 160.62C153.184 161.95 154.262 163.028 155.592 163.028C156.922 163.028 158 161.95 158 160.62C158 159.29 156.922 158.212 155.592 158.212C154.262 158.212 153.184 159.29 153.184 160.62Z" fill="#A29BFE"/>
<path d="M129.104 136.541C129.104 137.871 130.182 138.949 131.512 138.949C132.842 138.949 133.92 137.871 133.92 136.541C133.92 135.211 132.842 134.133 131.512 134.133C130.182 134.133 129.104 135.211 129.104 136.541Z" fill="#A29BFE"/>
<path d="M137.131 144.567C137.131 145.897 138.209 146.975 139.539 146.975C140.869 146.975 141.947 145.897 141.947 144.567C141.947 143.237 140.869 142.159 139.539 142.159C138.209 142.159 137.131 143.237 137.131 144.567Z" fill="#A29BFE"/>
<path d="M129.104 152.594C129.104 153.924 130.182 155.002 131.512 155.002C132.842 155.002 133.92 153.924 133.92 152.594C133.92 151.264 132.842 150.186 131.512 150.186C130.182 150.186 129.104 151.264 129.104 152.594Z" fill="#A29BFE"/>
<path d="M137.131 160.62C137.131 161.95 138.209 163.028 139.539 163.028C140.869 163.028 141.947 161.95 141.947 160.62C141.947 159.29 140.869 158.212 139.539 158.212C138.209 158.212 137.131 159.29 137.131 160.62Z" fill="#A29BFE"/>
<path d="M113.051 120.488C113.051 121.818 114.129 122.896 115.459 122.896C116.789 122.896 117.867 121.818 117.867 120.488C117.867 119.158 116.789 118.08 115.459 118.08C114.129 118.08 113.051 119.158 113.051 120.488Z" fill="#A29BFE"/>
<path d="M121.078 128.514C121.078 129.844 122.156 130.922 123.486 130.922C124.816 130.922 125.894 129.844 125.894 128.514C125.894 127.184 124.816 126.106 123.486 126.106C122.156 126.106 121.078 127.184 121.078 128.514Z" fill="#A29BFE"/>
<path d="M113.051 136.541C113.051 137.871 114.129 138.949 115.459 138.949C116.789 138.949 117.867 137.871 117.867 136.541C117.867 135.211 116.789 134.133 115.459 134.133C114.129 134.133 113.051 135.211 113.051 136.541Z" fill="#A29BFE"/>
<path d="M121.078 144.567C121.078 145.897 122.156 146.975 123.486 146.975C124.816 146.975 125.894 145.897 125.894 144.567C125.894 143.237 124.816 142.159 123.486 142.159C122.156 142.159 121.078 143.237 121.078 144.567Z" fill="#A29BFE"/>
<path d="M113.051 152.594C113.051 153.924 114.129 155.002 115.459 155.002C116.789 155.002 117.867 153.924 117.867 152.594C117.867 151.264 116.789 150.186 115.459 150.186C114.129 150.186 113.051 151.264 113.051 152.594Z" fill="#A29BFE"/>
<path d="M121.078 160.62C121.078 161.95 122.156 163.028 123.486 163.028C124.816 163.028 125.894 161.95 125.894 160.62C125.894 159.29 124.816 158.212 123.486 158.212C122.156 158.212 121.078 159.29 121.078 160.62Z" fill="#A29BFE"/>
<path d="M105.025 128.514C105.025 129.844 106.103 130.922 107.433 130.922C108.763 130.922 109.841 129.844 109.841 128.514C109.841 127.184 108.763 126.106 107.433 126.106C106.103 126.106 105.025 127.184 105.025 128.514Z" fill="#A29BFE"/>
<path d="M96.9982 136.541C96.9982 137.871 98.0763 138.949 99.4061 138.949C100.736 138.949 101.814 137.871 101.814 136.541C101.814 135.211 100.736 134.133 99.4061 134.133C98.0763 134.133 96.9982 135.211 96.9982 136.541Z" fill="#A29BFE"/>
<path d="M105.025 144.567C105.025 145.897 106.103 146.975 107.433 146.975C108.763 146.975 109.841 145.897 109.841 144.567C109.841 143.237 108.763 142.159 107.433 142.159C106.103 142.159 105.025 143.237 105.025 144.567Z" fill="#A29BFE"/>
<path d="M96.9982 152.594C96.9982 153.924 98.0763 155.002 99.4061 155.002C100.736 155.002 101.814 153.924 101.814 152.594C101.814 151.264 100.736 150.186 99.4061 150.186C98.0763 150.186 96.9982 151.264 96.9982 152.594Z" fill="#A29BFE"/>
<path d="M105.025 160.62C105.025 161.95 106.103 163.028 107.433 163.028C108.763 163.028 109.841 161.95 109.841 160.62C109.841 159.29 108.763 158.212 107.433 158.212C106.103 158.212 105.025 159.29 105.025 160.62Z" fill="#A29BFE"/>
<path d="M88.9716 144.567C88.9716 145.897 90.0497 146.975 91.3796 146.975C92.7095 146.975 93.7875 145.897 93.7875 144.567C93.7875 143.237 92.7095 142.159 91.3796 142.159C90.0497 142.159 88.9716 143.237 88.9716 144.567Z" fill="#A29BFE"/>
<path d="M80.9451 152.594C80.9451 153.924 82.0231 155.002 83.353 155.002C84.6829 155.002 85.761 153.924 85.761 152.594C85.761 151.264 84.6829 150.186 83.353 150.186C82.0231 150.186 80.9451 151.264 80.9451 152.594Z" fill="#A29BFE"/>
<path d="M88.9716 160.62C88.9716 161.95 90.0497 163.028 91.3796 163.028C92.7095 163.028 93.7875 161.95 93.7875 160.62C93.7875 159.29 92.7095 158.212 91.3796 158.212C90.0497 158.212 88.9716 159.29 88.9716 160.62Z" fill="#A29BFE"/>
<path d="M72.9185 160.62C72.9185 161.95 73.9966 163.028 75.3265 163.028C76.6563 163.028 77.7344 161.95 77.7344 160.62C77.7344 159.29 76.6563 158.212 75.3265 158.212C73.9966 158.212 72.9185 159.29 72.9185 160.62Z" fill="#A29BFE"/>
</g>
<defs>
<clipPath id="clip0">
<rect width="75.2662" height="102.636" fill="white" transform="translate(158 94) rotate(90)"/>
</clipPath>
</defs>
</svg>
