<svg width="797" height="543" viewBox="0 0 797 543" fill="none" xmlns="http://www.w3.org/2000/svg">
<g clip-path="url(#clip0)">
<path fill-rule="evenodd" clip-rule="evenodd" d="M700.835 491.487C700.835 491.487 767.154 412.513 689.781 344.13C689.781 344.13 759.264 266.821 715.052 179.117C670.839 91.4131 585.564 98.8452 517.669 116.685C449.775 134.524 361.35 125.598 293.442 55.734C225.548 -14.1301 146.587 0.734004 116.591 33.4377C86.5821 66.1415 78.6926 133.043 111.852 199.945C145.012 266.847 126.069 309.958 97.6353 342.662C69.2147 375.366 66.051 466.399 133.959 491.5H700.835V491.487Z" fill="#D2EAF9"/>
<path fill-rule="evenodd" clip-rule="evenodd" d="M684.399 519.511C684.399 519.511 755.274 476.937 738.077 403.416C738.077 403.416 737.578 401.528 739.219 401.227C740.86 400.925 776.08 457.485 726.879 509.261L684.399 519.511Z" fill="#D2EAF9"/>
<path fill-rule="evenodd" clip-rule="evenodd" d="M125.084 512.367C125.084 512.367 50.6264 463.108 68.6896 378.026C68.6896 378.026 69.2147 375.85 67.4819 375.496C65.7491 375.142 28.7563 440.589 80.4516 500.491L125.084 512.367Z" fill="#D2EAF9"/>
<path fill-rule="evenodd" clip-rule="evenodd" d="M34.3223 491.486H774.019C778.863 491.486 782.841 495.445 782.841 500.294C782.841 505.144 778.876 509.103 774.019 509.103H744.26C741.569 509.103 739.363 511.305 739.363 513.992C739.363 516.679 741.569 518.881 744.26 518.881H755.155C758.529 518.881 761.286 521.634 761.286 525.003C761.286 528.371 758.529 531.124 755.155 531.124H54.1708C50.7971 531.124 48.0403 528.371 48.0403 525.003C48.0403 521.634 50.7971 518.881 54.1708 518.881H62.7429C65.434 518.881 67.6394 516.679 67.6394 513.992C67.6394 511.305 65.434 509.103 62.7429 509.103H34.3223C29.4652 509.103 25.5008 505.131 25.5008 500.294C25.5008 495.458 29.4783 491.486 34.3223 491.486ZM38.9169 531.137C42.1462 531.137 44.7979 528.489 44.7979 525.265V524.78C44.7979 521.555 42.1462 518.907 38.9169 518.907C35.6875 518.907 33.0358 521.555 33.0358 524.78V525.265C33.0358 528.489 35.6875 531.137 38.9169 531.137Z" fill="#01051A"/>
<path fill-rule="evenodd" clip-rule="evenodd" d="M128.773 295.434C110.329 276.69 96.6113 300.507 98.5279 324.415C100.339 347.079 119.912 424.86 116.289 457.577H123.785C142.111 415.619 152.389 319.434 128.773 295.434Z" fill="#3493D1"/>
<path fill-rule="evenodd" clip-rule="evenodd" d="M121.028 457.576C138.868 391.448 116.289 300.035 116.21 299.72C116.079 299.157 115.502 298.803 114.937 298.947C114.373 299.078 114.018 299.655 114.163 300.218C114.241 300.533 136.847 392.051 118.875 457.576H121.028Z" fill="#80BEE8"/>
<path fill-rule="evenodd" clip-rule="evenodd" d="M83.274 336.75C63.8456 326.473 58.936 348.9 66.5104 367.461C72.7853 382.836 100.523 428.333 111.012 457.563H120.897C121.737 417.179 106.221 348.887 83.274 336.75Z" fill="#80BEE8"/>
<path fill-rule="evenodd" clip-rule="evenodd" d="M117.287 457.577C110.854 402.944 74.4656 343.553 74.3343 343.343C74.0849 342.923 73.5335 342.792 73.1135 343.041C72.6934 343.29 72.5621 343.841 72.8115 344.26C72.9428 344.47 109.095 403.481 115.515 457.577H117.287Z" fill="#3493D1"/>
<path fill-rule="evenodd" clip-rule="evenodd" d="M165.412 362.69C184.249 354.471 187.229 375.719 178.867 392.484C173.209 403.822 152.796 432.868 139.052 457.577H123.378C128.734 420.193 145.944 371.184 165.412 362.69Z" fill="white"/>
<path fill-rule="evenodd" clip-rule="evenodd" d="M128.983 457.577C142.36 412.303 173.157 369.624 173.275 369.453C173.537 369.086 174.062 368.995 174.43 369.257C174.798 369.519 174.889 370.03 174.627 370.41C174.509 370.581 144.027 412.814 130.69 457.577H128.983Z" fill="#D2EAF9"/>
<path fill-rule="evenodd" clip-rule="evenodd" d="M99.2368 442.621H154.424C156.078 442.621 157.43 443.971 157.43 445.622V459.228C157.43 460.88 156.078 462.23 154.424 462.23H99.2368C97.5828 462.23 96.2306 460.88 96.2306 459.228V445.622C96.2438 443.971 97.5959 442.621 99.2368 442.621Z" fill="#151F42"/>
<path fill-rule="evenodd" clip-rule="evenodd" d="M108.715 453.697H144.959L154.437 462.217L146.692 491.958H126.844H106.982L99.2368 462.217L108.715 453.697Z" fill="#151F42"/>
<path fill-rule="evenodd" clip-rule="evenodd" d="M154.437 462.217L152.836 468.338H100.838L99.2368 462.217H154.437Z" fill="#01051A"/>
<path fill-rule="evenodd" clip-rule="evenodd" d="M673.819 457.878C676.851 457.878 679.726 459.071 681.866 461.208C684.005 463.344 685.2 466.215 685.2 469.243C685.2 472.27 684.005 475.141 681.866 477.278C679.726 479.414 676.851 480.607 673.819 480.607C670.786 480.607 667.911 479.414 665.772 477.278C663.632 475.141 662.437 472.27 662.437 469.243C662.437 466.215 663.632 463.344 665.772 461.208C667.911 459.071 670.799 457.878 673.819 457.878ZM678.728 464.34C677.429 463.029 675.67 462.309 673.819 462.309C671.968 462.309 670.222 463.029 668.909 464.34C667.609 465.638 666.874 467.394 666.874 469.243C666.874 471.091 667.596 472.834 668.909 474.145C670.222 475.456 671.968 476.177 673.819 476.177C675.67 476.177 677.416 475.456 678.728 474.145C680.041 472.834 680.763 471.091 680.763 469.243C680.763 467.394 680.041 465.638 678.728 464.34Z" fill="#F7B63A"/>
<path fill-rule="evenodd" clip-rule="evenodd" d="M655.703 491.486C665.522 491.486 673.556 483.464 673.556 473.66V472.664V456.41V455.086C673.556 454.221 672.847 453.513 671.981 453.513H639.438C638.572 453.513 637.863 454.221 637.863 455.086V456.41V472.664V473.66C637.85 483.477 645.884 491.486 655.703 491.486Z" fill="#FAC74C"/>
<path fill-rule="evenodd" clip-rule="evenodd" d="M667.439 471.445C667.439 473.345 667.137 475.18 666.572 476.911C666.257 477.881 665.864 478.824 665.391 479.716C663.448 483.386 660.271 486.309 656.412 487.908C654.311 488.786 652.001 489.271 649.586 489.271C648.588 489.271 647.617 489.192 646.658 489.035C649.31 490.608 652.408 491.499 655.69 491.499C659.694 491.499 663.409 490.162 666.402 487.908C668.345 486.44 669.986 484.592 671.206 482.468C671.705 481.603 672.125 480.699 672.467 479.768C673.162 477.867 673.543 475.823 673.543 473.686V472.69V462.387V459.556V456.436V455.112C673.543 454.247 672.834 453.54 671.968 453.54H667.439V454.221V460.998V464.419V470.462V471.445Z" fill="#F7B63A"/>
<path fill-rule="evenodd" clip-rule="evenodd" d="M640.239 491.486H671.18C672.493 491.486 673.556 490.411 673.556 489.114C673.556 487.803 672.493 486.741 671.18 486.741H640.239C638.926 486.741 637.863 487.816 637.863 489.114C637.85 490.425 638.926 491.486 640.239 491.486Z" fill="#FAC74C"/>
<path fill-rule="evenodd" clip-rule="evenodd" d="M643.573 456.908C645.227 456.908 646.58 458.258 646.58 459.91V470.658C646.58 472.31 645.227 473.66 643.573 473.66C641.919 473.66 640.567 472.31 640.567 470.658V459.91C640.567 458.258 641.919 456.908 643.573 456.908Z" fill="#FAD996"/>
<path fill-rule="evenodd" clip-rule="evenodd" d="M640.462 431.545H654.075C655.112 431.545 655.952 430.706 655.952 429.67C655.952 428.635 655.112 427.796 654.075 427.796H635.776C633.085 427.796 630.879 425.594 630.879 422.907C630.879 420.22 633.085 418.018 635.776 418.018H683.375C686.066 418.018 688.272 420.22 688.272 422.907C688.272 425.594 686.066 427.796 683.375 427.796H666.769C665.732 427.796 664.892 428.635 664.892 429.67C664.892 430.706 665.732 431.545 666.769 431.545H673.162C675.25 431.545 676.943 433.249 676.943 435.32C676.943 437.391 675.236 439.095 673.162 439.095H662.595C658.46 439.095 655.073 442.477 655.073 446.606V450.053C655.073 451.023 654.272 451.822 653.301 451.822C652.329 451.822 651.529 451.023 651.529 450.053V443.499C651.529 441.074 649.546 439.095 647.118 439.095H640.462C638.388 439.095 636.682 437.391 636.682 435.32C636.682 433.236 638.375 431.545 640.462 431.545Z" fill="white"/>
<path fill-rule="evenodd" clip-rule="evenodd" d="M168.917 152.416C161.657 152.416 154.7 153.727 148.28 156.113C145.379 152.914 141.179 150.909 136.518 150.909C134.352 150.909 132.278 151.341 130.388 152.128C129.351 138.47 117.93 127.721 103.989 127.721C97.9372 127.721 92.3581 129.753 87.8948 133.161C85.0331 129.242 80.4123 126.686 75.1876 126.686C74.3081 126.686 73.4548 126.764 72.6278 126.896C72.6278 126.896 70.3699 113.355 38.7725 114.85C18.1757 115.846 4.44458 133.2 0.663913 153.255C-3.16926 173.598 11.5596 186.064 38.2474 186.064H115.449H142.57H187.124C204.386 186.064 229.04 188.882 211.908 170.872C201.105 159.508 185.838 152.416 168.917 152.416Z" fill="white"/>
<path fill-rule="evenodd" clip-rule="evenodd" d="M619.275 187.624C622.045 187.624 624.696 188.122 627.138 189.026C628.241 187.807 629.842 187.047 631.627 187.047C632.455 187.047 633.242 187.217 633.964 187.519C634.358 182.315 638.716 178.212 644.033 178.212C646.343 178.212 648.47 178.986 650.163 180.283C651.253 178.789 653.012 177.819 655.007 177.819C655.335 177.819 655.664 177.845 655.992 177.898C655.322 176.325 654.942 174.595 654.942 172.786C654.942 165.603 660.77 159.77 667.977 159.77C669.316 159.77 670.616 159.966 671.823 160.346C672.768 158.341 674.816 156.938 677.179 156.938H677.35C677.324 156.467 677.31 155.995 677.31 155.523C677.31 142.612 687.799 132.139 700.73 132.139C713.66 132.139 724.149 142.612 724.149 155.523C724.149 155.706 724.149 155.89 724.136 156.06C725.265 155.772 726.446 155.628 727.667 155.628C730.095 155.628 732.366 156.231 734.375 157.292C737.788 152.639 743.301 149.624 749.511 149.624C759.868 149.624 768.27 158.013 768.27 168.355C768.27 170.387 767.941 172.353 767.337 174.175C767.521 174.162 767.718 174.162 767.902 174.162C773.008 174.162 777.144 178.291 777.144 183.39C777.144 183.993 777.091 184.57 776.973 185.133C777.039 185.133 777.104 185.133 777.17 185.133C780.058 185.133 782.395 187.414 782.5 190.271C783.3 190.114 784.127 190.035 784.967 190.035C788.302 190.035 791.413 191.189 793.658 193.312C799.657 198.975 793.106 200.456 786.792 200.456H778.561H772.103H639.675H629.33H612.344C605.767 200.456 596.368 201.531 602.892 194.662C607.001 190.324 612.829 187.624 619.275 187.624Z" fill="white"/>
<path fill-rule="evenodd" clip-rule="evenodd" d="M506.551 50.2025C509.058 50.2025 511.46 50.6482 513.666 51.474C514.663 50.3729 516.12 49.6782 517.722 49.6782C518.47 49.6782 519.192 49.8224 519.835 50.0977C520.19 45.392 524.128 41.6825 528.946 41.6825C531.033 41.6825 532.963 42.3772 534.499 43.5569C535.483 42.2068 537.085 41.3286 538.883 41.3286C539.185 41.3286 539.487 41.3548 539.763 41.3941C539.159 39.9785 538.818 38.4056 538.818 36.7671C538.818 30.2657 544.095 24.9964 550.606 24.9964C551.814 24.9964 552.982 25.1799 554.085 25.5207C554.938 23.6987 556.789 22.4404 558.942 22.4404H559.099C559.073 22.021 559.06 21.5884 559.06 21.1558C559.06 9.47687 568.551 0 580.247 0C591.944 0 601.435 9.47687 601.435 21.1558C601.435 21.3131 601.435 21.4835 601.435 21.6408C602.459 21.3787 603.522 21.2476 604.638 21.2476C606.83 21.2476 608.891 21.7981 610.703 22.755C613.788 18.5474 618.776 15.821 624.394 15.821C633.767 15.821 641.368 23.4104 641.368 32.7693C641.368 34.6044 641.079 36.387 640.528 38.0386C640.699 38.0255 640.869 38.0255 641.04 38.0255C645.661 38.0255 649.402 41.7612 649.402 46.3751C649.402 46.9125 649.349 47.4499 649.258 47.9611C649.31 47.9611 649.376 47.9611 649.428 47.9611C652.041 47.9611 654.167 50.0321 654.246 52.6143C654.968 52.4833 655.716 52.4046 656.478 52.4046C659.497 52.4046 662.306 53.4532 664.341 55.367C669.775 60.4921 663.842 61.8291 658.132 61.8291H650.688H644.847H525.008H515.648H500.276C494.316 61.8291 485.823 62.799 491.73 56.586C495.445 52.6406 500.709 50.2025 506.551 50.2025Z" fill="#D2EAF9"/>
<path fill-rule="evenodd" clip-rule="evenodd" d="M650.321 84.2825H655.913C656.937 84.2825 657.777 85.1214 657.777 86.1438V91.7277C657.777 92.7501 656.937 93.5889 655.913 93.5889H650.321C649.297 93.5889 648.457 92.7501 648.457 91.7277V86.1438C648.457 85.1214 649.297 84.2825 650.321 84.2825Z" fill="#D2EAF9"/>
<path fill-rule="evenodd" clip-rule="evenodd" d="M669.395 84.2825H674.974C675.998 84.2825 676.838 85.1214 676.838 86.1438V91.7277C676.838 92.7501 675.998 93.5889 674.974 93.5889H669.395C668.371 93.5889 667.531 92.7501 667.531 91.7277V86.1438C667.544 85.1214 668.371 84.2825 669.395 84.2825Z" fill="#D2EAF9"/>
<path fill-rule="evenodd" clip-rule="evenodd" d="M688.482 84.2825H694.074C695.098 84.2825 695.938 85.1214 695.938 86.1438V91.7277C695.938 92.7501 695.098 93.5889 694.074 93.5889H688.482C687.458 93.5889 686.618 92.7501 686.618 91.7277V86.1438C686.618 85.1214 687.458 84.2825 688.482 84.2825Z" fill="#D2EAF9"/>
<path fill-rule="evenodd" clip-rule="evenodd" d="M707.569 84.2825H713.161C714.185 84.2825 715.025 85.1214 715.025 86.1438V91.7277C715.025 92.7501 714.185 93.5889 713.161 93.5889H707.569C706.545 93.5889 705.705 92.7501 705.705 91.7277V86.1438C705.705 85.1214 706.545 84.2825 707.569 84.2825Z" fill="#D2EAF9"/>
<path fill-rule="evenodd" clip-rule="evenodd" d="M768.873 332.398C768.873 331.848 769.32 331.415 769.858 331.415C770.409 331.415 770.843 331.861 770.843 332.398V336.829C770.843 337.366 770.396 337.812 769.858 337.812C769.307 337.812 768.873 337.366 768.873 336.829V332.398ZM762.152 336.003C761.772 335.623 761.772 334.993 762.152 334.613C762.533 334.233 763.163 334.233 763.544 334.613L766.681 337.746C767.062 338.126 767.062 338.755 766.681 339.136C766.3 339.516 765.67 339.516 765.29 339.136L762.152 336.003ZM759.934 343.291C759.382 343.291 758.949 342.845 758.949 342.308C758.949 341.757 759.395 341.325 759.934 341.325H764.371C764.922 341.325 765.355 341.77 765.355 342.308C765.355 342.858 764.909 343.291 764.371 343.291H759.934ZM763.544 350.015C763.163 350.395 762.533 350.395 762.152 350.015C761.772 349.635 761.772 349.006 762.152 348.626L765.29 345.493C765.67 345.113 766.3 345.113 766.681 345.493C767.062 345.873 767.062 346.502 766.681 346.882L763.544 350.015ZM770.856 352.217C770.856 352.768 770.409 353.2 769.871 353.2C769.32 353.2 768.887 352.754 768.887 352.217V347.787C768.887 347.236 769.333 346.804 769.871 346.804C770.422 346.804 770.856 347.249 770.856 347.787V352.217ZM777.577 348.612C777.958 348.993 777.958 349.622 777.577 350.002C777.196 350.382 776.566 350.382 776.185 350.002L773.048 346.869C772.667 346.489 772.667 345.86 773.048 345.48C773.429 345.1 774.059 345.1 774.44 345.48L777.577 348.612ZM779.795 341.325C780.334 341.325 780.78 341.77 780.78 342.308C780.78 342.858 780.334 343.291 779.795 343.291H775.358C774.807 343.291 774.374 342.845 774.374 342.308C774.374 341.757 774.82 341.325 775.358 341.325H779.795ZM776.185 334.6C776.566 334.22 777.196 334.22 777.577 334.6C777.958 334.98 777.958 335.61 777.577 335.99L774.44 339.122C774.059 339.503 773.429 339.503 773.048 339.122C772.667 338.742 772.667 338.113 773.048 337.733L776.185 334.6Z" fill="#D2EAF9"/>
<path fill-rule="evenodd" clip-rule="evenodd" d="M29.964 196.76H35.5563C36.5802 196.76 37.4203 197.599 37.4203 198.621V204.205C37.4203 205.227 36.5802 206.066 35.5563 206.066H29.964C28.9401 206.066 28.1 205.227 28.1 204.205V198.621C28.1131 197.599 28.9401 196.76 29.964 196.76Z" fill="#D2EAF9"/>
<path fill-rule="evenodd" clip-rule="evenodd" d="M49.0511 196.76H54.6434C55.6673 196.76 56.5074 197.599 56.5074 198.621V204.205C56.5074 205.227 55.6673 206.066 54.6434 206.066H49.0511C48.0272 206.066 47.1871 205.227 47.1871 204.205V198.621C47.1871 197.599 48.0272 196.76 49.0511 196.76Z" fill="#D2EAF9"/>
<path fill-rule="evenodd" clip-rule="evenodd" d="M68.1382 196.76H73.7305C74.7544 196.76 75.5945 197.599 75.5945 198.621V204.205C75.5945 205.227 74.7544 206.066 73.7305 206.066H68.1382C67.1143 206.066 66.2741 205.227 66.2741 204.205V198.621C66.2741 197.599 67.1143 196.76 68.1382 196.76Z" fill="#D2EAF9"/>
<path fill-rule="evenodd" clip-rule="evenodd" d="M87.2253 196.76H92.8176C93.8415 196.76 94.6816 197.599 94.6816 198.621V204.205C94.6816 205.227 93.8415 206.066 92.8176 206.066H87.2253C86.2014 206.066 85.3612 205.227 85.3612 204.205V198.621C85.3612 197.599 86.2014 196.76 87.2253 196.76Z" fill="#D2EAF9"/>
<path fill-rule="evenodd" clip-rule="evenodd" d="M644.991 327.653C644.991 327.102 645.437 326.67 645.976 326.67C646.527 326.67 646.96 327.116 646.96 327.653V332.083C646.96 332.621 646.514 333.066 645.976 333.066C645.424 333.066 644.991 332.621 644.991 332.083V327.653ZM638.257 331.258C637.876 330.877 637.876 330.248 638.257 329.868C638.637 329.488 639.268 329.488 639.648 329.868L642.786 333.001C643.166 333.381 643.166 334.01 642.786 334.39C642.405 334.77 641.775 334.77 641.394 334.39L638.257 331.258ZM636.051 338.546C635.5 338.546 635.067 338.1 635.067 337.562C635.067 337.012 635.513 336.579 636.051 336.579H640.488C641.04 336.579 641.473 337.025 641.473 337.562C641.473 338.1 641.027 338.546 640.488 338.546H636.051ZM639.648 345.27C639.268 345.65 638.637 345.65 638.257 345.27C637.876 344.89 637.876 344.26 638.257 343.88L641.394 340.748C641.775 340.367 642.405 340.367 642.786 340.748C643.166 341.128 643.166 341.757 642.786 342.137L639.648 345.27ZM646.96 347.472C646.96 348.022 646.514 348.455 645.976 348.455C645.424 348.455 644.991 348.009 644.991 347.472V343.041C644.991 342.504 645.437 342.058 645.976 342.058C646.527 342.058 646.96 342.504 646.96 343.041V347.472ZM653.695 343.88C654.075 344.26 654.075 344.89 653.695 345.27C653.314 345.65 652.684 345.65 652.303 345.27L649.166 342.137C648.785 341.757 648.785 341.128 649.166 340.748C649.546 340.367 650.176 340.367 650.557 340.748L653.695 343.88ZM655.9 336.579C656.451 336.579 656.885 337.025 656.885 337.562C656.885 338.1 656.438 338.546 655.9 338.546H651.463C650.925 338.546 650.478 338.1 650.478 337.562C650.478 337.012 650.925 336.579 651.463 336.579H655.9ZM652.29 329.855C652.671 329.475 653.301 329.475 653.681 329.855C654.062 330.235 654.062 330.864 653.681 331.245L650.544 334.377C650.163 334.757 649.533 334.757 649.152 334.377C648.772 333.997 648.772 333.368 649.152 332.988L652.29 329.855Z" fill="white"/>
<path fill-rule="evenodd" clip-rule="evenodd" d="M25.0413 35.43C25.0413 34.8795 25.4876 34.4469 26.0259 34.4469C26.5772 34.4469 27.0104 34.8926 27.0104 35.43V39.8604C27.0104 40.3978 26.5641 40.8435 26.0259 40.8435C25.4745 40.8435 25.0413 40.3978 25.0413 39.8604V35.43ZM18.307 39.0215C17.9263 38.6414 17.9263 38.0122 18.307 37.6321C18.6877 37.2519 19.3178 37.2519 19.6985 37.6321L22.8359 40.7648C23.2166 41.1449 23.2166 41.7741 22.8359 42.1542C22.4552 42.5344 21.8251 42.5344 21.4444 42.1542L18.307 39.0215ZM16.1016 46.3225C15.5634 46.3225 15.1171 45.8768 15.1171 45.3394C15.1171 44.802 15.5634 44.3563 16.1016 44.3563H20.5386C21.09 44.3563 21.5232 44.802 21.5232 45.3394C21.5232 45.8899 21.0769 46.3225 20.5386 46.3225H16.1016ZM19.7116 53.0467C19.3309 53.4269 18.7008 53.4269 18.3201 53.0467C17.9394 52.6666 17.9394 52.0374 18.3201 51.6573L21.4576 48.5246C21.8382 48.1445 22.4684 48.1445 22.849 48.5246C23.2297 48.9047 23.2297 49.5339 22.849 49.914L19.7116 53.0467ZM27.0104 55.2488C27.0104 55.7994 26.5641 56.2319 26.0259 56.2319C25.4745 56.2319 25.0413 55.7862 25.0413 55.2488V50.8184C25.0413 50.281 25.4876 49.8353 26.0259 49.8353C26.5772 49.8353 27.0104 50.281 27.0104 50.8184V55.2488ZM33.7447 51.6442C34.1254 52.0243 34.1254 52.6535 33.7447 53.0336C33.364 53.4137 32.7339 53.4137 32.3532 53.0336L29.2158 49.9009C28.8351 49.5208 28.8351 48.8916 29.2158 48.5115C29.5965 48.1313 30.2266 48.1313 30.6073 48.5115L33.7447 51.6442ZM35.9501 44.3432C36.5014 44.3432 36.9346 44.7889 36.9346 45.3263C36.9346 45.8768 36.4883 46.3094 35.9501 46.3094H31.5131C30.9617 46.3094 30.5285 45.8637 30.5285 45.3263C30.5285 44.7889 30.9748 44.3432 31.5131 44.3432H35.9501ZM32.3532 37.6321C32.7339 37.2519 33.364 37.2519 33.7447 37.6321C34.1254 38.0122 34.1254 38.6414 33.7447 39.0215L30.6073 42.1542C30.2266 42.5344 29.5965 42.5344 29.2158 42.1542C28.8351 41.7741 28.8351 41.1449 29.2158 40.7648L32.3532 37.6321Z" fill="#D2EAF9"/>
<path fill-rule="evenodd" clip-rule="evenodd" d="M169.166 82.5392C169.166 81.9887 169.612 81.5562 170.15 81.5562C170.702 81.5562 171.135 82.0018 171.135 82.5392V86.9696C171.135 87.5202 170.689 87.9527 170.15 87.9527C169.612 87.9527 169.166 87.507 169.166 86.9696V82.5392ZM162.445 86.1438C162.064 85.7637 162.064 85.1346 162.445 84.7544C162.825 84.3743 163.456 84.3743 163.836 84.7544L166.974 87.8872C167.354 88.2673 167.354 88.8965 166.974 89.2766C166.593 89.6567 165.963 89.6567 165.582 89.2766L162.445 86.1438ZM160.239 93.4317C159.688 93.4317 159.255 92.9861 159.255 92.4486C159.255 91.8981 159.701 91.4656 160.239 91.4656H164.676C165.215 91.4656 165.661 91.9112 165.661 92.4486C165.661 92.9992 165.215 93.4317 164.676 93.4317H160.239ZM163.836 100.156C163.456 100.536 162.825 100.536 162.445 100.156C162.064 99.7759 162.064 99.1467 162.445 98.7666L165.582 95.6338C165.963 95.2537 166.593 95.2537 166.974 95.6338C167.354 96.0139 167.354 96.6431 166.974 97.0232L163.836 100.156ZM171.148 102.358C171.148 102.909 170.702 103.341 170.164 103.341C169.625 103.341 169.179 102.895 169.179 102.358V97.9277C169.179 97.3771 169.625 96.9446 170.164 96.9446C170.715 96.9446 171.148 97.3902 171.148 97.9277V102.358ZM177.882 98.7666C178.263 99.1467 178.263 99.7759 177.882 100.156C177.502 100.536 176.872 100.536 176.491 100.156L173.34 97.0232C172.96 96.6431 172.96 96.0139 173.34 95.6338C173.721 95.2537 174.351 95.2537 174.732 95.6338L177.882 98.7666ZM180.088 91.4656C180.639 91.4656 181.072 91.9112 181.072 92.4486C181.072 92.9992 180.626 93.4317 180.088 93.4317H175.651C175.113 93.4317 174.666 92.9861 174.666 92.4486C174.666 91.8981 175.113 91.4656 175.651 91.4656H180.088ZM176.478 84.7413C176.859 84.3612 177.489 84.3612 177.869 84.7413C178.25 85.1214 178.25 85.7506 177.869 86.1307L174.732 89.2635C174.351 89.6436 173.721 89.6436 173.34 89.2635C172.96 88.8834 172.96 88.2542 173.34 87.8741L176.478 84.7413Z" fill="white"/>
<path fill-rule="evenodd" clip-rule="evenodd" d="M400.482 134.878C400.482 134.878 397.817 124.261 406.77 118.664C415.723 113.054 463.848 110.655 457.074 159.114C450.3 207.574 434.823 249.033 463.362 260.647C463.362 260.647 465.777 261.695 464.753 263.753C463.729 265.811 459.069 264.5 459.069 264.5C459.069 264.5 465.423 273.414 454.409 279.522C443.408 285.63 394.247 291.856 396.728 243.882C399.222 195.895 400.482 134.878 400.482 134.878Z" fill="#0C1332"/>
<path fill-rule="evenodd" clip-rule="evenodd" d="M472.341 459.333C472.341 459.333 500.932 448.546 527.2 441.074C553.468 433.603 586.89 446.881 595.698 454.693C604.507 462.492 598.862 483.74 595.698 490.556L404.171 513.626L212.644 490.556C209.48 483.753 203.835 462.505 212.644 454.693C221.452 446.894 254.874 433.616 281.142 441.074C307.41 448.546 336.001 459.333 336.001 459.333L404.171 464.642L472.341 459.333Z" fill="#0C1332"/>
<path fill-rule="evenodd" clip-rule="evenodd" d="M460.841 328.02C460.841 328.02 512.169 411.582 530.574 414.217C548.978 416.851 644.781 340.709 647.157 338.939C649.533 337.17 648.614 334.05 646.107 334.247C643.6 334.443 630.354 341.731 629.501 342.308C628.648 342.884 628.582 341.993 628.582 341.993C631.129 330.249 620.443 327.404 617.634 327.234C614.825 327.05 612.685 328.283 612.711 329.764C612.724 331.245 614.864 331.835 614.864 331.835C621.467 332.529 623.029 338.166 620.456 341.915C617.883 345.65 612.304 347.577 608.09 343.907C603.876 340.237 607.027 335.361 608.313 333.919C609.6 332.49 610.9 330.983 609.521 329.593C608.13 328.204 606.659 329.462 606.659 329.462C593.27 338.729 599.925 349.36 599.925 349.36C599.925 349.36 601.29 353.095 598.087 355.219C594.884 357.342 540.905 383.65 537.216 383.977C534.459 384.226 507.995 331.874 492.557 300.442C485.048 285.158 474.494 267.148 459.699 262.456C459.699 262.442 437.882 270.058 460.841 328.02Z" fill="#F4AD85"/>
<path fill-rule="evenodd" clip-rule="evenodd" d="M460.841 328.02C460.841 328.02 512.169 411.582 530.574 414.217C548.978 416.851 644.781 340.709 647.157 338.939C648.864 337.654 648.864 335.675 647.787 334.745C647.617 336.278 645.739 337.536 641.368 340.669C635.763 344.693 592.298 377.83 569.233 391.239C546.156 404.648 540.157 410.494 530.049 407.492C519.94 404.491 511.08 389.351 498.438 373.255C485.796 357.159 466.985 303.823 467.156 284.267C467.221 276.546 469.44 272.312 472.118 270.019C468.35 266.545 464.228 263.871 459.699 262.442C459.699 262.442 437.882 270.058 460.841 328.02Z" fill="#F09373"/>
<path fill-rule="evenodd" clip-rule="evenodd" d="M347.5 328.02C347.5 328.02 296.173 411.582 277.768 414.217C259.364 416.851 163.561 340.709 161.185 338.939C158.808 337.17 159.727 334.05 162.235 334.247C164.742 334.443 177.987 341.731 178.841 342.308C179.694 342.884 179.76 341.993 179.76 341.993C177.213 330.249 187.899 327.404 190.708 327.234C193.517 327.05 195.657 328.283 195.644 329.764C195.631 331.245 193.478 331.835 193.478 331.835C186.875 332.529 185.313 338.166 187.885 341.915C190.458 345.65 196.038 347.577 200.251 343.907C204.465 340.237 201.315 335.361 200.028 333.919C198.742 332.49 197.442 330.983 198.821 329.593C200.212 328.204 201.682 329.462 201.682 329.462C215.072 338.729 208.417 349.36 208.417 349.36C208.417 349.36 207.051 353.095 210.254 355.219C213.457 357.342 267.437 383.65 271.126 383.977C273.882 384.226 300.347 331.874 315.785 300.442C323.294 285.158 333.848 267.148 348.642 262.456C348.642 262.442 370.46 270.058 347.5 328.02Z" fill="#F4AD85"/>
<path fill-rule="evenodd" clip-rule="evenodd" d="M347.5 328.02C347.5 328.02 296.173 411.582 277.768 414.217C259.364 416.851 163.561 340.709 161.185 338.939C159.058 337.353 159.57 334.692 161.513 334.286C161.696 336.003 163.206 337.471 166.12 339.581C170.702 342.898 242.6 394.175 259.035 402.38C275.471 410.586 278.319 409.957 292.221 393.86C306.123 377.764 339.309 317.338 337.419 292.092C336.815 284.07 333.782 279.456 329.936 276.9C335.266 270.163 341.449 264.736 348.642 262.456C348.642 262.442 370.46 270.058 347.5 328.02Z" fill="#F09373"/>
<path fill-rule="evenodd" clip-rule="evenodd" d="M598.875 459.333C602.761 468.902 598.35 484.815 595.685 490.543C592.521 497.345 550.461 515.775 504.568 518.763C458.675 521.752 406.14 528.227 402.491 528.896C398.828 529.564 322.519 538.687 311.216 542.344C299.914 546.001 306.399 533.379 313.54 531.386C320.694 529.394 324.265 529.722 326.51 528.568C328.754 527.401 336.657 521.175 351.281 515.696C365.918 510.217 373.4 501.422 377.391 497.608C381.382 493.793 390.033 493.125 395.179 494.619C400.338 496.113 403.83 504.253 415.631 504.411C427.432 504.581 449.552 498.106 485.954 481.996C513.009 470.029 537.308 462.374 557.695 459.635C563.103 458.914 597.825 456.725 598.875 459.333Z" fill="#F09373"/>
<path fill-rule="evenodd" clip-rule="evenodd" d="M598.875 459.333C602.761 468.902 598.35 484.815 595.685 490.543C592.521 497.346 550.461 515.775 504.568 518.764C458.675 521.752 406.14 528.227 402.491 528.896C398.828 529.564 322.519 538.687 311.216 542.344C299.914 546.002 306.399 533.379 313.54 531.386C320.694 529.394 324.265 529.722 326.51 528.568C328.754 527.402 336.657 521.176 351.281 515.696C365.918 510.217 373.4 501.422 377.391 497.608C381.382 493.794 390.033 493.125 395.179 494.619C400.338 496.114 403.83 504.253 415.631 504.411C421.722 504.503 430.57 502.812 442.713 498.945C450.55 504.594 469.23 514.32 501.523 510.702C546.116 505.695 574.852 495.393 582.269 489.874C589.699 484.356 595.698 467.159 593.02 464C590.342 460.854 578.423 458.311 578.383 458.298C588.412 457.918 598.324 457.957 598.875 459.333Z" fill="#E8685B"/>
<path fill-rule="evenodd" clip-rule="evenodd" d="M404.171 470.619C404.171 470.619 443.067 471.943 472.341 459.333C472.341 459.333 454.055 443.067 451.56 426.8C449.066 410.533 449.893 379.652 450.891 372.678C451.889 365.705 461.038 334.168 461.038 325.373C461.038 316.577 465.029 269.757 459.712 262.456C459.712 262.456 440.297 257.619 429.992 254.63C419.687 251.642 420.514 235.047 420.514 226.58C420.514 218.112 420.514 217.286 420.514 217.286L404.184 215.805L387.854 217.286C387.854 217.286 387.854 218.112 387.854 226.58C387.854 235.047 388.681 251.642 378.376 254.63C368.071 257.619 348.655 262.456 348.655 262.456C343.339 269.757 347.33 316.577 347.33 325.373C347.33 334.168 356.479 365.718 357.477 372.678C358.475 379.652 359.302 410.533 356.808 426.8C354.313 443.067 336.027 459.333 336.027 459.333C365.275 471.943 404.171 470.619 404.171 470.619Z" fill="#3288C9"/>
<path fill-rule="evenodd" clip-rule="evenodd" d="M404.171 470.619C404.171 470.619 443.067 471.943 472.341 459.333C472.341 459.333 454.055 443.067 451.56 426.8C449.066 410.533 449.893 379.652 450.891 372.678C451.889 365.705 461.038 334.168 461.038 325.372C461.038 316.577 465.029 269.756 459.712 262.455C459.712 262.455 453.95 261.014 447.031 259.231L443.146 271.854L444.879 275.642C444.879 275.642 454.829 277.057 456.89 279.273C458.951 281.475 459.424 284.634 458.794 301.516C458.163 318.399 452.466 342.701 424.505 342.544C396.531 342.386 380.253 342.544 373.624 342.544C366.981 342.544 425.135 354.38 432.093 358.168C439.05 361.956 436.517 416.078 436.517 428.071C436.517 440.065 422.247 461.26 378.179 469.439C393.013 470.999 404.171 470.619 404.171 470.619Z" fill="#296FAD"/>
<path fill-rule="evenodd" clip-rule="evenodd" d="M450.628 260.149C444.183 258.497 435.689 256.282 429.979 254.63C421.67 252.218 420.593 240.972 420.501 232.269L404.184 229.778L387.867 232.269C387.762 240.972 386.685 252.232 378.389 254.63C372.678 256.282 364.185 258.497 357.74 260.149C357.74 260.149 362.728 288.868 365.051 294.189C367.375 299.498 386.134 313.772 404.197 313.772C422.247 313.772 441.006 299.498 443.343 294.189C445.64 288.868 450.628 260.149 450.628 260.149Z" fill="#F09373"/>
<path fill-rule="evenodd" clip-rule="evenodd" d="M450.628 260.149C444.183 258.497 435.689 256.282 429.979 254.63C422.418 252.441 420.856 242.925 420.554 234.667C417.915 234.392 415.605 234.248 413.741 234.248C406.783 234.248 397.765 233.173 389.836 231.954L387.854 232.255C387.775 238.324 387.237 245.625 384.112 250.305C397.594 253.896 422.234 260.502 431.121 263.203C443.605 266.991 443.316 294.189 443.316 294.189C445.64 288.868 450.628 260.149 450.628 260.149ZM397.292 313.13C399.576 313.549 401.887 313.772 404.171 313.772C406.087 313.772 408.017 313.615 409.934 313.313C409.881 313.261 406.074 309.158 407.098 303.365C408.122 297.532 404.013 301.87 403.462 304.78C402.911 307.69 402.162 312.71 397.292 313.13Z" fill="#E8685B"/>
<path fill-rule="evenodd" clip-rule="evenodd" d="M395.047 139.833C395.034 139.767 389.731 114.928 416.169 117.34L415.985 119.398C392.343 117.248 397.056 139.374 397.069 139.44L395.047 139.833Z" fill="#0C1332"/>
<path fill-rule="evenodd" clip-rule="evenodd" d="M434.455 118.494C434.521 118.48 459.581 115.177 455.997 140.043L453.95 139.754C457.139 117.589 434.771 120.538 434.705 120.551L434.455 118.494Z" fill="#0C1332"/>
<path fill-rule="evenodd" clip-rule="evenodd" d="M414.633 163.964C424.768 163.964 433.025 155.719 433.025 145.6C433.025 135.481 424.754 127.236 414.633 127.236C404.499 127.236 396.242 135.481 396.242 145.6C396.229 155.719 404.499 163.964 414.633 163.964Z" fill="#F7B63A"/>
<path fill-rule="evenodd" clip-rule="evenodd" d="M363.306 190.534C363.03 190.573 362.754 190.612 362.479 190.678H362.465C357.411 191.74 353.578 196.157 353.473 201.531C353.355 207.77 358.33 212.935 364.579 213.053C370.828 213.171 376 208.203 376.118 201.964C376.183 198.333 374.543 195.069 371.917 192.959C372.206 196.301 371.668 200.43 367.401 200.836L367.519 194.322C367.585 191.674 365.117 190.455 363.306 190.534Z" fill="#E8685B"/>
<path fill-rule="evenodd" clip-rule="evenodd" d="M445.036 190.534C445.312 190.573 445.587 190.612 445.863 190.678H445.876C450.93 191.74 454.763 196.157 454.868 201.531C454.987 207.77 450.011 212.935 443.763 213.053C437.514 213.171 432.342 208.203 432.224 201.964C432.158 198.333 433.812 195.069 436.425 192.959C436.136 196.301 436.674 200.43 440.94 200.836L440.822 194.322C440.757 191.674 443.225 190.455 445.036 190.534Z" fill="#E8685B"/>
<path fill-rule="evenodd" clip-rule="evenodd" d="M404.171 134.052C382.852 134.052 365.406 151.472 365.406 172.759V207.967C365.406 229.254 382.852 246.674 404.171 246.674C425.49 246.674 442.936 229.254 442.936 207.967V172.759C442.936 151.472 425.49 134.052 404.171 134.052Z" fill="#F4AD85"/>
<path fill-rule="evenodd" clip-rule="evenodd" d="M404.171 246.687C425.49 246.687 442.936 229.267 442.936 207.98V172.76C442.936 167.582 441.899 162.64 440.035 158.118C432.736 153.452 427.327 151.25 427.327 151.25L369.016 161.828L365.393 175.866L371.615 178.946H372.875C372.875 178.946 374.608 172.55 381.329 172.55C388.05 172.55 411.036 172.55 418.939 172.55C426.842 172.55 432.998 172.471 432.998 183.036C432.998 193.614 435.125 200.155 437.501 202.527C437.501 202.527 437.501 206.564 437.501 213.695C437.527 220.839 427.314 244.275 404.171 246.687Z" fill="#F09373"/>
<path fill-rule="evenodd" clip-rule="evenodd" d="M426.146 209.881C423.337 209.828 421 212.07 420.947 214.875C420.895 217.68 423.127 220.013 425.949 220.065C428.758 220.118 431.095 217.876 431.147 215.071C431.2 212.266 428.968 209.933 426.146 209.881Z" fill="#E8685B"/>
<path fill-rule="evenodd" clip-rule="evenodd" d="M382.301 209.055C379.491 209.002 377.155 211.244 377.102 214.049C377.05 216.867 379.295 219.187 382.104 219.239C384.913 219.292 387.25 217.063 387.302 214.245C387.355 211.427 385.123 209.107 382.301 209.055Z" fill="#E8685B"/>
<path fill-rule="evenodd" clip-rule="evenodd" d="M380.174 191.045C379.478 191.399 378.625 191.11 378.271 190.416C377.916 189.721 378.205 188.869 378.901 188.515C382.563 186.627 387.46 186.418 391.044 188.567C391.713 188.974 391.936 189.839 391.529 190.507C391.135 191.176 390.256 191.399 389.586 190.992C386.712 189.275 383.101 189.655 380.174 191.045Z" fill="#0C1332"/>
<path fill-rule="evenodd" clip-rule="evenodd" d="M428.417 199.84C428.417 200.784 428.049 201.675 427.38 202.344C426.71 203.012 425.818 203.379 424.873 203.379C423.927 203.379 423.035 203.012 422.365 202.344C421.696 201.675 421.328 200.784 421.328 199.84C421.328 199.053 420.698 198.424 419.91 198.424C419.123 198.424 418.493 199.053 418.493 199.84C418.493 201.531 419.162 203.156 420.37 204.349C421.578 205.542 423.192 206.223 424.886 206.223C426.592 206.223 428.207 205.555 429.401 204.349C430.018 203.733 430.491 202.999 430.819 202.212C431.003 202.173 431.357 202.134 431.686 202.383C431.869 202.514 432.119 202.488 432.25 202.304C432.381 202.121 432.355 201.872 432.171 201.741C431.804 201.465 431.41 201.387 431.082 201.387L431.095 201.36C431.436 201.282 431.883 201.269 432.329 201.492C432.539 201.583 432.775 201.505 432.867 201.295C432.959 201.098 432.88 200.849 432.67 200.757C432.158 200.522 431.659 200.482 431.226 200.522V200.508C431.581 200.364 432.014 200.272 432.5 200.338C432.723 200.364 432.933 200.207 432.946 199.984C432.972 199.761 432.815 199.565 432.591 199.538C432.093 199.473 431.646 199.538 431.239 199.656C431.147 198.962 430.557 198.437 429.835 198.437C429.06 198.424 428.417 199.067 428.417 199.84Z" fill="#0C1332"/>
<path fill-rule="evenodd" clip-rule="evenodd" d="M429.638 191.058C426.71 189.655 423.1 189.275 420.212 191.005C419.543 191.412 418.663 191.189 418.27 190.521C417.876 189.852 418.086 188.974 418.755 188.581C422.339 186.431 427.235 186.641 430.898 188.528C431.594 188.882 431.883 189.734 431.528 190.429C431.187 191.11 430.334 191.399 429.638 191.058Z" fill="#0C1332"/>
<path fill-rule="evenodd" clip-rule="evenodd" d="M365.406 195.698V201.151C367.257 201.151 369.488 198.477 369.488 196.065C369.488 193.666 369.488 191.071 369.488 191.071C369.488 191.071 373.82 184.216 373.82 177.006C373.82 169.797 375.501 165.511 381.684 165.511C387.867 165.511 394.05 168.735 404.184 168.735C414.318 168.735 420.501 165.511 426.684 165.511C432.867 165.511 434.547 169.81 434.547 177.006C434.547 184.216 438.879 191.071 438.879 191.071C438.879 191.071 438.879 193.653 438.879 196.065C438.879 198.464 441.111 201.151 442.962 201.151V195.698C442.936 191.936 444.314 190.56 444.314 190.56C444.314 190.56 444.314 190.376 444.314 174.359C444.314 119.214 364.067 119.214 364.067 174.359C364.067 190.376 364.067 190.56 364.067 190.56C364.067 190.56 365.432 191.923 365.406 195.698Z" fill="#242B5C"/>
<path fill-rule="evenodd" clip-rule="evenodd" d="M426.553 139.348C425.411 138.614 424.229 137.945 423.008 137.342C423.625 142.546 422.142 150.883 407.663 153.766C392.382 156.807 387.263 144.67 385.569 137.238C380.725 139.61 376.341 142.992 372.823 147.357C377.942 153.281 385.622 159.743 395.494 161.185C412.69 163.689 429.979 151.761 426.553 139.348Z" fill="#392680"/>
<path fill-rule="evenodd" clip-rule="evenodd" d="M365.406 195.698V201.151C367.257 201.151 369.488 198.477 369.488 196.065C369.488 193.666 369.488 191.071 369.488 191.071C369.488 191.071 373.82 184.216 373.82 177.006C373.82 170.728 375.094 166.651 379.518 165.707C372.692 163.44 369.029 160.268 367.191 157.03C365.196 162.024 364.054 167.792 364.054 174.345C364.054 190.363 364.054 190.547 364.054 190.547C364.054 190.547 365.432 191.923 365.406 195.698ZM421.958 166.009C423.573 165.707 425.122 165.498 426.671 165.498C432.854 165.498 434.534 169.797 434.534 176.993C434.534 184.202 438.866 191.058 438.866 191.058C438.866 191.058 438.866 193.64 438.866 196.052C438.866 198.451 441.098 201.138 442.949 201.138V195.685C442.923 191.923 444.301 190.547 444.301 190.547C444.301 190.547 444.301 190.363 444.301 174.345C444.301 161.329 439.825 151.394 433.011 144.525C442.201 159.39 421.958 166.009 421.958 166.009Z" fill="#0C1332"/>
<path fill-rule="evenodd" clip-rule="evenodd" d="M381.395 199.84C381.395 200.784 381.763 201.675 382.432 202.344C383.102 203.012 383.994 203.379 384.939 203.379C385.885 203.379 386.777 203.012 387.447 202.344C388.116 201.675 388.484 200.784 388.484 199.84C388.484 199.053 389.114 198.424 389.901 198.424C390.689 198.424 391.319 199.053 391.319 199.84C391.319 201.531 390.65 203.156 389.442 204.349C388.234 205.542 386.62 206.223 384.926 206.223C383.233 206.223 381.605 205.555 380.41 204.349C379.793 203.733 379.321 202.999 379.006 202.212C378.822 202.173 378.454 202.134 378.139 202.383C377.956 202.514 377.706 202.488 377.575 202.304C377.444 202.121 377.47 201.872 377.654 201.741C378.021 201.465 378.415 201.387 378.743 201.387L378.73 201.36C378.389 201.282 377.942 201.269 377.496 201.492C377.299 201.583 377.05 201.505 376.958 201.295C376.866 201.098 376.945 200.849 377.155 200.757C377.667 200.522 378.166 200.482 378.599 200.522V200.508C378.244 200.364 377.811 200.272 377.326 200.338C377.102 200.364 376.905 200.207 376.879 199.984C376.853 199.761 377.01 199.565 377.234 199.538C377.732 199.473 378.179 199.538 378.573 199.656C378.664 198.962 379.268 198.437 379.977 198.437C380.752 198.424 381.395 199.067 381.395 199.84Z" fill="#0C1332"/>
<path fill-rule="evenodd" clip-rule="evenodd" d="M399.76 219.96C399.747 219.095 399.038 218.401 398.159 218.401C397.292 218.414 396.596 219.121 396.596 220C396.623 222.084 397.502 223.971 398.894 225.335C400.285 226.698 402.202 227.524 404.289 227.497C406.376 227.471 408.267 226.593 409.632 225.203C410.997 223.814 411.824 221.9 411.798 219.816C411.785 218.951 411.076 218.256 410.209 218.256C409.343 218.269 408.647 218.977 408.647 219.855C408.66 221.088 408.175 222.202 407.387 223.014C406.586 223.827 405.484 224.338 404.25 224.351C403.016 224.365 401.9 223.88 401.086 223.093C400.285 222.294 399.773 221.179 399.76 219.96Z" fill="#EE846A"/>
<path fill-rule="evenodd" clip-rule="evenodd" d="M209.349 459.333C205.463 468.902 209.874 484.815 212.525 490.543C215.689 497.345 257.749 515.775 303.642 518.763C349.535 521.752 402.07 528.227 405.72 528.896C409.382 529.564 485.691 538.687 496.994 542.344C508.297 546.001 501.812 533.379 494.67 531.386C487.529 529.394 483.945 529.722 481.701 528.568C479.456 527.401 471.553 521.175 456.929 515.696C442.293 510.217 434.823 501.422 430.832 497.608C426.842 493.793 418.191 493.125 413.045 494.619C407.886 496.113 404.394 504.253 392.593 504.411C380.791 504.581 358.672 498.106 322.27 481.996C295.214 470.029 270.916 462.374 250.529 459.635C245.134 458.914 210.412 456.725 209.349 459.333Z" fill="#F4AD85"/>
<path fill-rule="evenodd" clip-rule="evenodd" d="M209.349 459.333C205.463 468.902 209.874 484.815 212.525 490.543C215.689 497.346 257.749 515.775 303.642 518.764C349.535 521.752 402.07 528.227 405.72 528.896C409.382 529.564 485.691 538.687 496.994 542.344C503.243 544.363 504.056 541.414 502.324 538.032C502.179 539.316 500.092 539.972 494.093 538.556C488.081 537.141 454.987 527.913 426.382 523.64C397.778 519.38 388.3 522.067 337.103 516.378C285.907 510.702 245.606 497.437 231.862 491.132C218.118 484.815 214.639 474.25 222.699 466.202C230.759 458.153 264.391 462.125 264.431 462.125C259.626 461.063 254.992 460.238 250.542 459.635C245.134 458.914 210.412 456.725 209.349 459.333Z" fill="#F09373"/>
<path fill-rule="evenodd" clip-rule="evenodd" d="M389.389 166.651C389.389 166.651 385.609 160.871 383.417 160.805C381.434 160.74 379.846 164.043 378.94 165.865C379.741 165.629 380.647 165.511 381.671 165.511C384.165 165.498 386.646 166.022 389.389 166.651Z" fill="#01051A"/>
<path fill-rule="evenodd" clip-rule="evenodd" d="M389.389 166.651C389.389 166.651 386.305 162.142 382.786 162.024C379.268 161.906 374.739 179.261 377.864 189.734C377.864 189.734 378.914 192.657 374.792 193.142C370.67 193.614 368.005 190.992 368.911 179.287C369.817 167.582 376.905 159.704 381.933 159.757C386.961 159.809 388.72 164.646 389.389 166.651Z" fill="#151F42"/>
<path fill-rule="evenodd" clip-rule="evenodd" d="M622.018 343.015C628.569 331.756 637.6 320.405 638.559 324.966C639.517 329.515 630.577 339.948 626.429 344.955C622.281 349.963 622.018 343.015 622.018 343.015Z" fill="#F4AD85"/>
<path fill-rule="evenodd" clip-rule="evenodd" d="M623.751 343.5C633.741 332.883 646.461 322.803 646.356 328.007C646.238 333.211 633.859 342.321 628.07 346.725C622.268 351.129 623.751 343.5 623.751 343.5Z" fill="#F4AD85"/>
<path fill-rule="evenodd" clip-rule="evenodd" d="M627.099 332.372C626.862 332.031 626.6 331.717 626.337 331.428C623.528 328.322 619.262 327.326 617.634 327.221C614.825 327.037 612.685 328.269 612.711 329.751C612.724 331.232 614.864 331.822 614.864 331.822C621.467 332.516 623.029 338.153 620.456 341.901C619.734 342.937 618.789 343.841 617.713 344.51C618.001 344.444 618.316 344.313 618.645 344.221C621.572 343.33 630.879 337.078 627.099 332.372Z" fill="#F09373"/>
<path fill-rule="evenodd" clip-rule="evenodd" d="M628.884 344.798C628.674 346.817 628.136 349.084 626.731 351.549C634.135 346.069 639.622 341.941 641.381 340.682C645.753 337.549 647.63 336.278 647.8 334.757C647.38 334.404 646.816 334.194 646.107 334.246C644.112 334.404 635.329 339.044 631.391 341.233C630.38 341.796 629.685 342.19 629.514 342.308C629.304 342.452 629.146 342.504 629.015 342.504C629.002 343.225 628.963 343.985 628.884 344.798Z" fill="#F4AD85"/>
<path fill-rule="evenodd" clip-rule="evenodd" d="M186.323 343.015C179.773 331.756 170.741 320.405 169.783 324.966C168.825 329.515 177.764 339.948 181.913 344.955C186.074 349.963 186.323 343.015 186.323 343.015Z" fill="#F4AD85"/>
<path fill-rule="evenodd" clip-rule="evenodd" d="M184.604 343.5C174.614 332.883 161.893 322.803 161.998 328.007C162.117 333.211 174.496 342.321 180.285 346.725C186.074 351.129 184.604 343.5 184.604 343.5Z" fill="#F4AD85"/>
<path fill-rule="evenodd" clip-rule="evenodd" d="M181.243 332.372C181.479 332.031 181.742 331.717 182.004 331.428C184.814 328.322 189.08 327.326 190.708 327.221C193.517 327.037 195.657 328.269 195.644 329.751C195.631 331.232 193.478 331.822 193.478 331.822C186.875 332.516 185.313 338.153 187.885 341.901C188.594 342.937 189.553 343.841 190.629 344.51C190.34 344.444 190.038 344.313 189.697 344.221C186.783 343.33 177.462 337.078 181.243 332.372Z" fill="#F09373"/>
</g>
<defs>
<clipPath id="clip0">
<rect width="796" height="543" fill="white" transform="translate(0.0600586)"/>
</clipPath>
</defs>
</svg>
