<svg width="103" height="67" viewBox="0 0 103 67" fill="none" xmlns="http://www.w3.org/2000/svg">
<g clip-path="url(#clip0)">
<path d="M90.1575 58.5939C90.1575 59.9238 91.2356 61.0018 92.5655 61.0018C93.8954 61.0018 94.9734 59.9238 94.9734 58.5939C94.9734 57.264 93.8954 56.1859 92.5655 56.1859C91.2356 56.1859 90.1575 57.264 90.1575 58.5939Z" fill="#A29BFE"/>
<path d="M98.1841 66.6204C98.1841 67.9503 99.2622 69.0283 100.592 69.0283C101.922 69.0283 103 67.9503 103 66.6204C103 65.2905 101.922 64.2124 100.592 64.2124C99.2622 64.2124 98.1841 65.2905 98.1841 66.6204Z" fill="#A29BFE"/>
<path d="M74.1044 42.5408C74.1044 43.8707 75.1825 44.9487 76.5124 44.9487C77.8422 44.9487 78.9203 43.8707 78.9203 42.5408C78.9203 41.2109 77.8422 40.1328 76.5124 40.1328C75.1825 40.1328 74.1044 41.2109 74.1044 42.5408Z" fill="#A29BFE"/>
<path d="M82.131 50.5673C82.131 51.8972 83.209 52.9752 84.5389 52.9752C85.8688 52.9752 86.9469 51.8972 86.9469 50.5673C86.9469 49.2374 85.8688 48.1593 84.5389 48.1593C83.209 48.1593 82.131 49.2374 82.131 50.5673Z" fill="#A29BFE"/>
<path d="M74.1044 58.5939C74.1044 59.9238 75.1825 61.0018 76.5124 61.0018C77.8422 61.0018 78.9203 59.9238 78.9203 58.5939C78.9203 57.264 77.8422 56.1859 76.5124 56.1859C75.1825 56.1859 74.1044 57.264 74.1044 58.5939Z" fill="#A29BFE"/>
<path d="M82.131 66.6204C82.131 67.9503 83.209 69.0283 84.5389 69.0283C85.8688 69.0283 86.9469 67.9503 86.9469 66.6204C86.9469 65.2905 85.8688 64.2124 84.5389 64.2124C83.209 64.2124 82.131 65.2905 82.131 66.6204Z" fill="#A29BFE"/>
<path d="M58.0513 26.4877C58.0513 27.8176 59.1294 28.8956 60.4592 28.8956C61.7891 28.8956 62.8672 27.8176 62.8672 26.4877C62.8672 25.1578 61.7891 24.0797 60.4592 24.0797C59.1294 24.0797 58.0513 25.1578 58.0513 26.4877Z" fill="#A29BFE"/>
<path d="M66.0778 34.5142C66.0778 35.8441 67.1559 36.9221 68.4858 36.9221C69.8157 36.9221 70.8938 35.8441 70.8938 34.5142C70.8938 33.1843 69.8157 32.1062 68.4858 32.1062C67.1559 32.1062 66.0778 33.1843 66.0778 34.5142Z" fill="#A29BFE"/>
<path d="M58.0513 42.5408C58.0513 43.8707 59.1294 44.9487 60.4592 44.9487C61.7891 44.9487 62.8672 43.8707 62.8672 42.5408C62.8672 41.2109 61.7891 40.1328 60.4592 40.1328C59.1294 40.1328 58.0513 41.2109 58.0513 42.5408Z" fill="#A29BFE"/>
<path d="M66.0778 50.5673C66.0778 51.8972 67.1559 52.9752 68.4858 52.9752C69.8157 52.9752 70.8938 51.8972 70.8938 50.5673C70.8938 49.2374 69.8157 48.1593 68.4858 48.1593C67.1559 48.1593 66.0778 49.2374 66.0778 50.5673Z" fill="#A29BFE"/>
<path d="M58.0513 58.5939C58.0513 59.9238 59.1294 61.0018 60.4592 61.0018C61.7891 61.0018 62.8672 59.9238 62.8672 58.5939C62.8672 57.264 61.7891 56.1859 60.4592 56.1859C59.1294 56.1859 58.0513 57.264 58.0513 58.5939Z" fill="#A29BFE"/>
<path d="M66.0778 66.6204C66.0778 67.9503 67.1559 69.0283 68.4858 69.0283C69.8157 69.0283 70.8938 67.9503 70.8938 66.6204C70.8938 65.2905 69.8157 64.2124 68.4858 64.2124C67.1559 64.2124 66.0778 65.2905 66.0778 66.6204Z" fill="#A29BFE"/>
<path d="M50.0247 34.5142C50.0247 35.8441 51.1028 36.9221 52.4327 36.9221C53.7626 36.9221 54.8407 35.8441 54.8407 34.5142C54.8407 33.1843 53.7626 32.1062 52.4327 32.1062C51.1028 32.1062 50.0247 33.1843 50.0247 34.5142Z" fill="#A29BFE"/>
<path d="M41.9982 42.5408C41.9982 43.8707 43.0763 44.9487 44.4061 44.9487C45.736 44.9487 46.8141 43.8707 46.8141 42.5408C46.8141 41.2109 45.736 40.1328 44.4061 40.1328C43.0763 40.1328 41.9982 41.2109 41.9982 42.5408Z" fill="#A29BFE"/>
<path d="M50.0247 50.5673C50.0247 51.8972 51.1028 52.9752 52.4327 52.9752C53.7626 52.9752 54.8407 51.8972 54.8407 50.5673C54.8407 49.2374 53.7626 48.1593 52.4327 48.1593C51.1028 48.1593 50.0247 49.2374 50.0247 50.5673Z" fill="#A29BFE"/>
<path d="M41.9982 58.5939C41.9982 59.9238 43.0763 61.0018 44.4061 61.0018C45.736 61.0018 46.8141 59.9238 46.8141 58.5939C46.8141 57.264 45.736 56.1859 44.4061 56.1859C43.0763 56.1859 41.9982 57.264 41.9982 58.5939Z" fill="#A29BFE"/>
<path d="M50.0247 66.6204C50.0247 67.9503 51.1028 69.0283 52.4327 69.0283C53.7626 69.0283 54.8407 67.9503 54.8407 66.6204C54.8407 65.2905 53.7626 64.2124 52.4327 64.2124C51.1028 64.2124 50.0247 65.2905 50.0247 66.6204Z" fill="#A29BFE"/>
<path d="M33.9716 50.5673C33.9716 51.8972 35.0497 52.9752 36.3796 52.9752C37.7095 52.9752 38.7875 51.8972 38.7875 50.5673C38.7875 49.2374 37.7095 48.1593 36.3796 48.1593C35.0497 48.1593 33.9716 49.2374 33.9716 50.5673Z" fill="#A29BFE"/>
<path d="M25.9451 58.5939C25.9451 59.9238 27.0231 61.0018 28.353 61.0018C29.6829 61.0018 30.761 59.9238 30.761 58.5939C30.761 57.264 29.6829 56.1859 28.353 56.1859C27.0231 56.1859 25.9451 57.264 25.9451 58.5939Z" fill="#A29BFE"/>
<path d="M33.9716 66.6204C33.9716 67.9503 35.0497 69.0283 36.3796 69.0283C37.7095 69.0283 38.7875 67.9503 38.7875 66.6204C38.7875 65.2905 37.7095 64.2124 36.3796 64.2124C35.0497 64.2124 33.9716 65.2905 33.9716 66.6204Z" fill="#A29BFE"/>
<path d="M17.9185 66.6204C17.9185 67.9503 18.9966 69.0283 20.3265 69.0283C21.6563 69.0283 22.7344 67.9503 22.7344 66.6204C22.7344 65.2905 21.6563 64.2124 20.3265 64.2124C18.9966 64.2124 17.9185 65.2905 17.9185 66.6204Z" fill="#A29BFE"/>
</g>
<defs>
<clipPath id="clip0">
<rect width="75.2662" height="102.636" fill="white" transform="translate(103) rotate(90)"/>
</clipPath>
</defs>
</svg>
